<?xml version="1.0" standalone="no"?>
<!DOCTYPE svg PUBLIC "-//W3C//DTD SVG 20010904//EN"
 "http://www.w3.org/TR/2001/REC-SVG-20010904/DTD/svg10.dtd">
<svg version="1.0" xmlns="http://www.w3.org/2000/svg"
 width="960.000000pt" height="960.000000pt" viewBox="0 0 960.000000 960.000000"
 preserveAspectRatio="xMidYMid meet">
<metadata>
Created by potrace 1.11, written by Peter Selinger 2001-2013
</metadata>
<g transform="translate(0.000000,960.000000) scale(0.100000,-0.100000)"
fill="#000000" stroke="none">
<path d="M745 9580 c-194 -44 -332 -117 -463 -244 -136 -131 -217 -282 -263
-486 -18 -83 -19 -200 -19 -4090 0 -3894 1 -4007 19 -4091 60 -270 216 -489
440 -617 l92 -52 4287 0 4287 0 90 52 c124 71 262 209 333 333 l52 90 0 4287
0 4287 -52 92 c-129 226 -353 384 -623 440 -87 18 -222 19 -4095 18 -3837 -1
-4008 -1 -4085 -19z m2828 -1919 c154 -75 251 -279 250 -521 -1 -241 -96 -436
-248 -510 -50 -25 -52 -25 -422 -30 l-372 -5 256 -395 c140 -217 433 -669 651
-1005 217 -335 626 -965 907 -1400 281 -434 560 -864 620 -955 59 -91 120
-192 135 -225 94 -207 53 -440 -106 -605 -173 -180 -425 -221 -654 -107 -104
52 -167 124 -336 387 -83 129 -343 530 -576 890 -1092 1684 -1402 2163 -1821
2810 -248 382 -471 727 -497 765 -108 161 -146 274 -137 410 18 261 206 471
460 514 29 5 455 8 947 7 l895 -1 48 -24z m4482 3 c247 -64 417 -303 402 -564
-8 -137 -32 -185 -292 -585 -128 -198 -420 -648 -648 -1000 -228 -352 -641
-989 -917 -1415 -276 -426 -507 -783 -514 -792 -6 -10 -13 -18 -16 -18 -3 0
-30 42 -60 92 -30 50 -172 282 -316 515 l-262 425 134 206 c73 114 245 379
381 589 795 1227 953 1471 953 1476 0 3 -165 7 -367 9 l-368 3 -57 28 c-231
113 -320 526 -178 825 44 93 115 172 183 202 40 19 75 20 962 20 800 0 929 -2
980 -16z"/>
</g>
</svg>
